<?xml version="1.0" standalone="no"?>
<!DOCTYPE svg PUBLIC "-//W3C//DTD SVG 20010904//EN"
 "http://www.w3.org/TR/2001/REC-SVG-20010904/DTD/svg10.dtd">
<svg version="1.0" xmlns="http://www.w3.org/2000/svg"
 width="500.000000pt" height="500.000000pt" viewBox="0 0 500.000000 500.000000"
 preserveAspectRatio="xMidYMid meet">

<g transform="translate(0.000000,500.000000) scale(0.100000,-0.100000)"
fill="#000000" stroke="none">
<path d="M0 2592 l0 -2408 78 -18 c89 -20 222 -80 293 -131 l49 -35 2290 0
2290 0 0 2500 0 2500 -2500 0 -2500 0 0 -2408z m2815 1511 c650 -101 1163
-630 1202 -1240 l6 -103 -31 0 -32 0 0 -55 c0 -54 0 -55 30 -55 l30 0 0 -455
0 -455 -65 0 -65 0 0 455 c0 398 2 455 15 455 12 0 15 13 15 55 0 40 -4 55
-14 55 -9 0 -15 24 -20 87 -36 466 -358 882 -821 1062 -516 201 -1098 84
-1484 -298 -211 -209 -331 -454 -363 -747 -10 -89 -15 -104 -30 -104 -15 0
-18 -9 -18 -55 0 -48 2 -55 20 -55 20 0 20 -7 20 -455 l0 -455 -65 0 -65 0 0
455 c0 398 2 455 15 455 12 0 15 13 15 55 0 44 -3 55 -16 55 -15 0 -16 10 -10
83 28 335 155 606 396 848 341 342 825 492 1335 412z m-1225 -1323 c13 -8 15
-82 18 -547 2 -296 0 -553 -3 -571 -12 -64 -30 -72 -169 -72 -119 0 -126 1
-155 26 l-31 26 0 563 c0 527 1 565 18 574 22 13 302 14 322 1z m2258 -6 l22
-15 0 -554 0 -553 -35 -31 -36 -31 -128 0 c-125 0 -129 1 -155 26 l-26 27 0
563 c0 526 1 564 18 573 9 6 84 11 167 11 120 0 155 -3 173 -16z m-1823 -59
c14 -13 25 -34 25 -46 0 -11 -25 -131 -56 -266 -30 -135 -52 -248 -49 -251 13
-12 48 45 176 286 127 239 170 302 207 302 33 0 55 -29 49 -64 -6 -35 -288
-559 -321 -594 -36 -40 -74 -55 -133 -50 -61 5 -96 31 -113 83 -9 27 -1 74 45
291 31 142 61 271 67 287 20 51 65 61 103 22z m712 -1 c16 -25 15 -29 -10
-108 -15 -45 -27 -85 -27 -89 0 -4 14 -7 30 -7 39 0 82 -22 109 -56 27 -35 28
-106 1 -176 -24 -63 -23 -58 -6 -58 33 0 65 42 91 121 45 133 107 179 222 166
35 -4 54 -13 81 -40 96 -97 9 -264 -133 -254 -27 2 -58 7 -67 11 -15 7 -18 3
-18 -21 0 -45 32 -68 94 -68 75 1 137 40 177 111 30 52 33 55 68 52 29 -2 37
-8 39 -26 5 -37 -16 -87 -59 -136 -104 -118 -301 -141 -401 -45 -39 36 -43 38
-81 30 -22 -5 -45 -7 -52 -4 -8 2 -21 -7 -30 -21 -40 -61 -165 -85 -237 -47
-36 20 -36 20 -74 0 -101 -51 -214 0 -214 98 0 48 84 303 111 337 34 44 99 26
99 -27 0 -12 -21 -84 -46 -160 -25 -76 -43 -144 -40 -152 3 -8 14 -15 24 -15
42 0 68 52 157 314 49 143 97 268 107 278 26 26 64 23 85 -8z m-227 -14 c29
-29 26 -74 -6 -99 -15 -12 -32 -21 -39 -21 -7 0 -24 9 -39 21 -48 38 -22 119
39 119 14 0 34 -9 45 -20z m-1470 -490 c0 -315 0 -320 -20 -320 -66 0 -161 94
-200 197 -45 119 -12 277 77 368 36 36 103 74 131 75 9 0 12 -71 12 -320z
m3088 294 c54 -27 94 -70 133 -144 21 -39 24 -59 24 -150 0 -91 -3 -112 -24
-155 -44 -89 -132 -165 -191 -165 -20 0 -20 5 -20 320 0 256 3 320 13 320 7 0
36 -12 65 -26z"/>
<path d="M2661 2384 c-11 -14 -35 -70 -53 -125 -30 -91 -31 -100 -16 -115 19
-19 63 -13 71 11 4 8 0 30 -8 49 -20 47 -6 82 39 101 28 12 36 22 42 49 3 19
3 39 -1 45 -12 20 -53 12 -74 -15z"/>
<path d="M3076 2388 c-28 -43 -24 -63 11 -66 41 -4 71 34 53 67 -14 28 -46 27
-64 -1z"/>
<path d="M0 15 c0 -12 13 -15 63 -14 l62 0 -45 15 c-58 18 -80 18 -80 -1z"/>
</g>
</svg>
